<svg width="56" height="75" viewBox="0 0 56 75" fill="none" xmlns="http://www.w3.org/2000/svg">
<path d="M21.0933 64.2526L20.8012 64.9466H21.5541H52.104C53.9732 64.9466 55.5 66.4865 55.5 68.4056V78.9502C55.5 80.9153 53.9353 82.5 52.0147 82.5L11.522 82.4924L11.5199 82.4924L8.11024 82.4773L8.10996 82.4773C2.64695 82.456 -1.04081 76.7616 1.13383 71.6363L0.673799 71.4411L1.13383 71.6363L33.4939 -4.63629L33.4942 -4.63704C34.1549 -6.20145 35.9387 -6.91715 37.4672 -6.25056L37.4677 -6.25035L45.9972 -2.54118L45.9982 -2.54077C47.4898 -1.89577 48.1877 -0.132177 47.5459 1.40143C47.5458 1.40162 47.5457 1.4018 47.5456 1.40199L21.0933 64.2526Z" stroke="url(#paint0_linear_1_14)"/>
<defs>
<linearGradient id="paint0_linear_1_14" x1="28.0449" y1="17.4853" x2="26.8164" y2="82.977" gradientUnits="userSpaceOnUse">
<stop stop-color="#FF1A35"/>
<stop offset="1" stop-color="#A01F2E"/>
</linearGradient>
</defs>
</svg>
