<svg width="17" height="16" viewBox="0 0 17 16" fill="none" xmlns="http://www.w3.org/2000/svg">
<path d="M2.63534 6.4C2.50106 6.92272 2.43333 7.46031 2.43374 8C2.43374 8.552 2.50414 9.088 2.63534 9.6H4.91374C4.80588 8.53606 4.80588 7.46394 4.91374 6.4H2.63534ZM3.28974 4.8H5.16654C5.37934 3.8264 5.68654 2.9544 6.06334 2.2288C4.90188 2.78834 3.93551 3.68419 3.28974 4.8ZM15.0321 6.4H12.7537C12.8616 7.46394 12.8616 8.53606 12.7537 9.6H15.0321C15.3015 8.55033 15.3015 7.44967 15.0321 6.4ZM14.3777 4.8C13.732 3.68419 12.7656 2.78834 11.6041 2.2288C11.9817 2.9544 12.2881 3.8264 12.5009 4.8H14.3777ZM6.52334 6.4C6.4634 6.93122 6.43349 7.46541 6.43374 8C6.43374 8.548 6.46414 9.084 6.52334 9.6H11.1441C11.2646 8.53674 11.2646 7.46326 11.1441 6.4H6.52334ZM6.80974 4.8H10.8577C10.7122 4.19864 10.5021 3.61473 10.2313 3.0584C9.72894 2.0544 9.19134 1.6 8.83374 1.6C8.47534 1.6 7.93854 2.0544 7.43614 3.0584C7.18414 3.564 6.97214 4.152 6.80974 4.8ZM3.28974 11.2C3.93551 12.3158 4.90188 13.2117 6.06334 13.7712C5.68574 13.0456 5.37934 12.1736 5.16654 11.2H3.28974ZM14.3777 11.2H12.5009C12.2881 12.1736 11.9809 13.0456 11.6041 13.7712C12.7656 13.2117 13.732 12.3158 14.3777 11.2ZM6.80974 11.2C6.97214 11.848 7.18414 12.436 7.43614 12.9416C7.93854 13.9456 8.47614 14.4 8.83374 14.4C9.19214 14.4 9.72894 13.9456 10.2313 12.9416C10.4833 12.436 10.6953 11.848 10.8577 11.2H6.80974ZM8.83374 16C4.41534 16 0.83374 12.4184 0.83374 8C0.83374 3.5816 4.41534 0 8.83374 0C13.2521 0 16.8337 3.5816 16.8337 8C16.8337 12.4184 13.2521 16 8.83374 16Z" fill="#525560"/>
</svg>
